<svg width="120" height="14" xmlns="http://www.w3.org/2000/svg">
  <g fill="none" fill-rule="evenodd">
    <path fill="#1973BA" d="M3 0h14v4H3z"/>
    <path fill="#F58A1F" d="M0 5h14v4H0z"/>
    <path fill="#CD2126" d="M5 10h12v4H5z"/>
    <path d="M117.823 4.356a2.101 2.101 0 0 1-1.542-.637 2.098 2.098 0 0 1-.637-1.54 2.1 2.1 0 0 1 .637-1.542c.426-.425.94-.637 1.542-.637.6 0 1.114.212 1.54.637.424.425.637.94.637 1.541 0 .602-.213 1.116-.638 1.54a2.098 2.098 0 0 1-1.539.638zm0-4.1c-.53 0-.984.187-1.36.563a1.852 1.852 0 0 0-.564 1.36c0 .53.188.982.564 1.357.376.375.83.562 1.36.562.531 0 .984-.187 1.359-.562a1.85 1.85 0 0 0 .562-1.358c0-.53-.187-.983-.562-1.359a1.85 1.85 0 0 0-1.359-.563zm1.058 3.284h-.47l-.303-.665c-.153-.333-.318-.5-.494-.5h-.256V3.54h-.386V.77h.779c.323 0 .573.067.748.203a.66.66 0 0 1 .263.552.69.69 0 0 1-.185.485.942.942 0 0 1-.515.27v.011c.153.033.305.204.456.512l.363.737zm-1.523-2.44v.948h.416c.382 0 .572-.16.572-.477 0-.17-.051-.291-.154-.363-.102-.071-.265-.107-.488-.107h-.346zM19.01.792h2.993c2.572 0 4.928.744 4.928 3.594 0 2.77-2.015 3.777-4.552 3.777h-1.002v4.51H19.01V.793zm2.378 5.494h.831c1.184 0 2.254-.389 2.254-1.774s-1.036-1.854-2.254-1.854h-.83v3.628z" fill="#000" fill-rule="nonzero"/>
    <path d="M28.515 3.773h2.02v2.022h.035c.102-.825 1.039-2.23 2.397-2.23.217 0 .457 0 .696.07v2.334c-.205-.116-.616-.186-1.016-.186-1.849 0-1.849 2.347-1.849 3.625v3.265h-2.272v-8.9h-.011z" fill="#000"/>
    <path d="M38.806 3.96c2.694 0 4.758 1.74 4.758 4.617 0 2.502-1.744 4.492-4.758 4.492-3.002 0-4.747-1.99-4.747-4.492 0-2.865 2.065-4.617 4.747-4.617m0 7.358c1.816 0 2.29-1.558 2.29-3.014 0-1.33-.736-2.581-2.29-2.581-1.53 0-2.278 1.285-2.278 2.581 0 1.445.474 3.014 2.278 3.014m12.424.552h-.036c-.683.853-1.633 1.2-2.722 1.2-2.723 0-3.72-2.227-3.72-4.65 0-2.433.997-4.59 3.72-4.59 1.158 0 1.958.392 2.653 1.234h.035V0h2.305v12.862H51.23v-.992zm-2.121-.589c1.53 0 2.028-1.615 2.028-2.86 0-1.235-.591-2.815-2.063-2.815-1.494 0-1.912 1.627-1.912 2.815 0 1.21.43 2.86 1.947 2.86z" fill="#000" fill-rule="nonzero"/>
    <path d="M63.762 12.86h-2.13v-1.208H61.6c-.687.86-1.656 1.417-2.828 1.417-2.04 0-2.93-1.487-2.93-3.485V3.96h2.243v4.752c0 1.093.011 2.556 1.453 2.556 1.623 0 1.972-1.812 1.972-2.95V3.96h2.242v8.9h.011zm8.34-6.819c-.42-.181-.864-.318-1.575-.318-1.436 0-2.357 1.114-2.357 2.752 0 1.603.781 2.843 2.415 2.843.665 0 1.389-.239 1.785-.41l.105 1.877c-.677.205-1.365.284-2.322.284-2.929 0-4.41-1.944-4.41-4.594 0-2.513 1.528-4.515 4.317-4.515.933 0 1.61.103 2.252.285l-.21 1.796zm2.516-.291H72.87V4.073h1.735V2.318l2.348-.734v2.49h2.089v1.675h-2.089v4.096c0 .746.213 1.446 1.11 1.446.424 0 .825-.08 1.073-.241l.07 1.813c-.495.137-1.037.206-1.734.206-1.84 0-2.855-1.113-2.855-2.845V5.749z" fill="#000"/>
    <path d="M80.396.792h2.993c2.572 0 4.928.744 4.928 3.594 0 2.77-2.015 3.777-4.552 3.777h-1.002v4.51h-2.367V.793zm2.367 5.494h.83c1.185 0 2.254-.389 2.254-1.774s-1.035-1.854-2.253-1.854h-.83v3.628z" fill="#000" fill-rule="nonzero"/>
    <path fill="#000" d="M89.901 0h2.376v12.673h-2.376z"/>
    <path d="M95.209 4.62c.882-.41 2.075-.66 3.049-.66 2.67 0 3.783 1.102 3.783 3.669v1.113c0 .875.011 1.533.034 2.18.023.66.046 1.261.103 1.943h-2.006c-.08-.454-.08-1.034-.103-1.295h-.034c-.528.965-1.674 1.5-2.706 1.5-1.547 0-3.072-.932-3.072-2.579 0-1.295.63-2.056 1.502-2.476.871-.42 1.995-.511 2.946-.511h1.26c0-1.397-.63-1.874-1.97-1.874-.975 0-1.938.375-2.706.943l-.08-1.954zm2.682 6.791c.7 0 1.25-.307 1.605-.772.378-.489.481-1.113.481-1.795h-.985c-1.02 0-2.534.17-2.534 1.5-.023.75.608 1.067 1.433 1.067z" fill="#000" fill-rule="nonzero"/>
    <path d="M104.554 3.773h2.13v1.209h.034c.698-1.023 1.656-1.418 2.828-1.418 2.04 0 2.93 1.488 2.93 3.486v5.612h-2.243v-4.74c0-1.093-.011-2.557-1.453-2.557-1.623 0-1.972 1.813-1.972 2.951v4.357h-2.242v-8.9h-.012z" fill="#000"/>
  </g>
</svg>
